<mxfile host="app.diagrams.net" modified="2022-12-17T18:55:34.736Z" agent="5.0 (Windows)" version="20.7.3" etag="dcfxTZ-t6OXkfYEeoMLa" type="github">
  <diagram id="FuWFxU6SBl5Ru1hO-DyZ" name="Page-1">
    <mxGraphModel dx="2074" dy="782" grid="1" gridSize="10" guides="1" tooltips="1" connect="1" arrows="1" fold="1" page="1" pageScale="1" pageWidth="850" pageHeight="1100" math="0" shadow="0">
      <root>
        <mxCell id="0" />
        <mxCell id="1" parent="0" />
        <mxCell id="cCBgi6iivqTjPaC3Otxk-1" value="&lt;div&gt;Start&lt;/div&gt;" style="strokeWidth=2;html=1;shape=mxgraph.flowchart.start_1;whiteSpace=wrap;" vertex="1" parent="1">
          <mxGeometry x="80" y="50" width="100" height="60" as="geometry" />
        </mxCell>
        <mxCell id="cCBgi6iivqTjPaC3Otxk-2" value="Can application be containerized?" style="strokeWidth=2;html=1;shape=mxgraph.flowchart.decision;whiteSpace=wrap;" vertex="1" parent="1">
          <mxGeometry x="55" y="160" width="150" height="100" as="geometry" />
        </mxCell>
        <mxCell id="cCBgi6iivqTjPaC3Otxk-3" value="" style="endArrow=classic;html=1;rounded=0;" edge="1" parent="1">
          <mxGeometry width="50" height="50" relative="1" as="geometry">
            <mxPoint x="130" y="110" as="sourcePoint" />
            <mxPoint x="130" y="160" as="targetPoint" />
          </mxGeometry>
        </mxCell>
        <mxCell id="cCBgi6iivqTjPaC3Otxk-4" value="Are you using .NET core?" style="strokeWidth=2;html=1;shape=mxgraph.flowchart.decision;whiteSpace=wrap;" vertex="1" parent="1">
          <mxGeometry x="310" y="160" width="170" height="100" as="geometry" />
        </mxCell>
        <mxCell id="cCBgi6iivqTjPaC3Otxk-5" value="" style="endArrow=classic;html=1;rounded=0;" edge="1" parent="1">
          <mxGeometry width="50" height="50" relative="1" as="geometry">
            <mxPoint x="200" y="210" as="sourcePoint" />
            <mxPoint x="310" y="210" as="targetPoint" />
          </mxGeometry>
        </mxCell>
        <mxCell id="cCBgi6iivqTjPaC3Otxk-8" value="Choose a Linux container" style="rounded=1;whiteSpace=wrap;html=1;absoluteArcSize=1;arcSize=14;strokeWidth=2;" vertex="1" parent="1">
          <mxGeometry x="285" y="320" width="220" height="70" as="geometry" />
        </mxCell>
        <mxCell id="cCBgi6iivqTjPaC3Otxk-9" value="" style="endArrow=classic;html=1;rounded=0;exitX=0.5;exitY=1;exitDx=0;exitDy=0;exitPerimeter=0;entryX=0.5;entryY=0;entryDx=0;entryDy=0;" edge="1" parent="1" source="cCBgi6iivqTjPaC3Otxk-4" target="cCBgi6iivqTjPaC3Otxk-8">
          <mxGeometry width="50" height="50" relative="1" as="geometry">
            <mxPoint x="500" y="330" as="sourcePoint" />
            <mxPoint x="550" y="280" as="targetPoint" />
          </mxGeometry>
        </mxCell>
        <mxCell id="cCBgi6iivqTjPaC3Otxk-10" value="Choose a Serverless container" style="rounded=1;whiteSpace=wrap;html=1;absoluteArcSize=1;arcSize=14;strokeWidth=2;" vertex="1" parent="1">
          <mxGeometry x="285" y="440" width="220" height="70" as="geometry" />
        </mxCell>
        <mxCell id="cCBgi6iivqTjPaC3Otxk-13" value="Aws Fargate with Amazon ECS managed Linux contianer" style="verticalLabelPosition=bottom;verticalAlign=top;html=1;shape=process;whiteSpace=wrap;rounded=1;size=0.14;arcSize=6;" vertex="1" parent="1">
          <mxGeometry x="315" y="560" width="160" height="60" as="geometry" />
        </mxCell>
        <mxCell id="cCBgi6iivqTjPaC3Otxk-16" value="" style="endArrow=classic;html=1;rounded=0;" edge="1" parent="1">
          <mxGeometry width="50" height="50" relative="1" as="geometry">
            <mxPoint x="395" y="390" as="sourcePoint" />
            <mxPoint x="395" y="440" as="targetPoint" />
          </mxGeometry>
        </mxCell>
        <mxCell id="cCBgi6iivqTjPaC3Otxk-18" value="" style="endArrow=classic;html=1;rounded=0;" edge="1" parent="1">
          <mxGeometry width="50" height="50" relative="1" as="geometry">
            <mxPoint x="394" y="510" as="sourcePoint" />
            <mxPoint x="394" y="560" as="targetPoint" />
          </mxGeometry>
        </mxCell>
        <mxCell id="cCBgi6iivqTjPaC3Otxk-19" value="AWS Porting Assistant for .NET" style="verticalLabelPosition=bottom;verticalAlign=top;html=1;shape=hexagon;perimeter=hexagonPerimeter2;arcSize=6;size=0.27;" vertex="1" parent="1">
          <mxGeometry x="620" y="200" width="100" height="60" as="geometry" />
        </mxCell>
        <mxCell id="cCBgi6iivqTjPaC3Otxk-20" value="" style="endArrow=classic;html=1;rounded=0;entryX=1;entryY=0.5;entryDx=0;entryDy=0;exitX=0;exitY=0.5;exitDx=0;exitDy=0;" edge="1" parent="1" source="cCBgi6iivqTjPaC3Otxk-21" target="cCBgi6iivqTjPaC3Otxk-8">
          <mxGeometry width="50" height="50" relative="1" as="geometry">
            <mxPoint x="530" y="420" as="sourcePoint" />
            <mxPoint x="580" y="370" as="targetPoint" />
          </mxGeometry>
        </mxCell>
        <mxCell id="cCBgi6iivqTjPaC3Otxk-21" value="AWS App2Contianer" style="verticalLabelPosition=bottom;verticalAlign=top;html=1;shape=hexagon;perimeter=hexagonPerimeter2;arcSize=6;size=0.27;" vertex="1" parent="1">
          <mxGeometry x="620" y="330" width="100" height="50" as="geometry" />
        </mxCell>
        <mxCell id="cCBgi6iivqTjPaC3Otxk-22" value="" style="endArrow=classic;html=1;rounded=0;" edge="1" parent="1" source="cCBgi6iivqTjPaC3Otxk-19" target="cCBgi6iivqTjPaC3Otxk-21">
          <mxGeometry width="50" height="50" relative="1" as="geometry">
            <mxPoint x="730" y="330" as="sourcePoint" />
            <mxPoint x="780" y="280" as="targetPoint" />
          </mxGeometry>
        </mxCell>
      </root>
    </mxGraphModel>
  </diagram>
</mxfile>
